<svg xmlns="http://www.w3.org/2000/svg" style="display:none">

<!-- Team emblems — modern line strokes, currentColor, 24x24 viewBox -->

<symbol id="i-target" viewBox="0 0 24 24" fill="none" stroke="currentColor" stroke-width="1.8" stroke-linecap="round" stroke-linejoin="round">
  <circle cx="12" cy="12" r="9"/><circle cx="12" cy="12" r="5.5"/><circle cx="12" cy="12" r="2" fill="currentColor"/>
</symbol>

<symbol id="i-bolt" viewBox="0 0 24 24" fill="none" stroke="currentColor" stroke-width="1.8" stroke-linecap="round" stroke-linejoin="round">
  <path d="M13 2L4 14h7l-1 8 9-12h-7l1-8z"/>
</symbol>

<symbol id="i-shield" viewBox="0 0 24 24" fill="none" stroke="currentColor" stroke-width="1.8" stroke-linecap="round" stroke-linejoin="round">
  <path d="M12 3l8 3v5c0 5-3.5 9-8 10-4.5-1-8-5-8-10V6l8-3z"/>
</symbol>

<symbol id="i-crown" viewBox="0 0 24 24" fill="none" stroke="currentColor" stroke-width="1.8" stroke-linecap="round" stroke-linejoin="round">
  <path d="M3 8l3 11h12l3-11-5 4-4-7-4 7-5-4z"/><path d="M5 19h14"/>
</symbol>

<symbol id="i-flame" viewBox="0 0 24 24" fill="none" stroke="currentColor" stroke-width="1.8" stroke-linecap="round" stroke-linejoin="round">
  <path d="M12 2c0 4-4 5-4 10 0 5 4 8 4 8s4-3 4-8c0-3-2-4-2-6 0 0-2 1-2-4z"/>
  <path d="M10 18a3 3 0 005 0"/>
</symbol>

<symbol id="i-anchor" viewBox="0 0 24 24" fill="none" stroke="currentColor" stroke-width="1.8" stroke-linecap="round" stroke-linejoin="round">
  <circle cx="12" cy="5" r="2"/><path d="M12 7v15"/><path d="M5 12h14"/><path d="M5 16a7 7 0 0014 0"/>
</symbol>

<symbol id="i-mountain" viewBox="0 0 24 24" fill="none" stroke="currentColor" stroke-width="1.8" stroke-linecap="round" stroke-linejoin="round">
  <path d="M3 20l6-12 4 7 3-5 5 10z"/>
</symbol>

<symbol id="i-star" viewBox="0 0 24 24" fill="none" stroke="currentColor" stroke-width="1.8" stroke-linecap="round" stroke-linejoin="round">
  <path d="M12 3l2.6 5.5 5.9.8-4.3 4.2 1 6-5.2-2.9-5.2 2.9 1-6-4.3-4.2 5.9-.8z"/>
</symbol>

<symbol id="i-moon" viewBox="0 0 24 24" fill="none" stroke="currentColor" stroke-width="1.8" stroke-linecap="round" stroke-linejoin="round">
  <path d="M20 14a8 8 0 11-9-11 7 7 0 009 11z"/>
</symbol>

<symbol id="i-leaf" viewBox="0 0 24 24" fill="none" stroke="currentColor" stroke-width="1.8" stroke-linecap="round" stroke-linejoin="round">
  <path d="M20 4c0 8-5 14-13 14C7 18 4 14 4 11s2-7 8-7c4 0 8 0 8 0z"/>
  <path d="M4 20c4-4 8-7 12-9"/>
</symbol>

<symbol id="i-diamond" viewBox="0 0 24 24" fill="none" stroke="currentColor" stroke-width="1.8" stroke-linecap="round" stroke-linejoin="round">
  <path d="M6 9l6-6 6 6-6 12z"/><path d="M6 9h12"/>
</symbol>

<symbol id="i-eye" viewBox="0 0 24 24" fill="none" stroke="currentColor" stroke-width="1.8" stroke-linecap="round" stroke-linejoin="round">
  <path d="M2 12s4-7 10-7 10 7 10 7-4 7-10 7-10-7-10-7z"/>
  <circle cx="12" cy="12" r="3" fill="currentColor"/>
</symbol>

<!-- UI icons -->

<symbol id="i-check" viewBox="0 0 24 24" fill="none" stroke="currentColor" stroke-width="2.4" stroke-linecap="round" stroke-linejoin="round">
  <path d="M4 12l5 5 11-12"/>
</symbol>

<symbol id="i-cross" viewBox="0 0 24 24" fill="none" stroke="currentColor" stroke-width="2.4" stroke-linecap="round" stroke-linejoin="round">
  <path d="M6 6l12 12M18 6L6 18"/>
</symbol>

<symbol id="i-lock" viewBox="0 0 24 24" fill="none" stroke="currentColor" stroke-width="1.8" stroke-linecap="round" stroke-linejoin="round">
  <rect x="4" y="11" width="16" height="10" rx="2"/>
  <path d="M8 11V7a4 4 0 018 0v4"/>
</symbol>

<symbol id="i-trophy" viewBox="0 0 24 24" fill="none" stroke="currentColor" stroke-width="1.8" stroke-linecap="round" stroke-linejoin="round">
  <path d="M7 4h10v6a5 5 0 01-10 0V4z"/>
  <path d="M17 6h3a3 3 0 01-3 5"/>
  <path d="M7 6H4a3 3 0 003 5"/>
  <path d="M12 15v3"/>
  <path d="M9 21h6l-1-3h-4z"/>
</symbol>

<symbol id="i-medal" viewBox="0 0 24 24" fill="none" stroke="currentColor" stroke-width="1.8" stroke-linecap="round" stroke-linejoin="round">
  <path d="M7 3l3 7h4l3-7"/>
  <circle cx="12" cy="15" r="6"/>
</symbol>

<symbol id="i-hourglass" viewBox="0 0 24 24" fill="none" stroke="currentColor" stroke-width="1.8" stroke-linecap="round" stroke-linejoin="round">
  <path d="M6 2h12M6 22h12"/>
  <path d="M6 2c0 5 6 7 6 10s-6 5-6 10"/>
  <path d="M18 2c0 5-6 7-6 10s6 5 6 10"/>
</symbol>

<symbol id="i-sparkle" viewBox="0 0 24 24" fill="none" stroke="currentColor" stroke-width="1.8" stroke-linecap="round" stroke-linejoin="round">
  <path d="M12 3v4M12 17v4M3 12h4M17 12h4M5 5l3 3M16 16l3 3M5 19l3-3M16 8l3-3"/>
  <circle cx="12" cy="12" r="2.5" fill="currentColor"/>
</symbol>

<symbol id="i-play" viewBox="0 0 24 24" fill="currentColor">
  <path d="M7 5v14l12-7z"/>
</symbol>

<symbol id="i-arrow-right" viewBox="0 0 24 24" fill="none" stroke="currentColor" stroke-width="2" stroke-linecap="round" stroke-linejoin="round">
  <path d="M5 12h14M13 5l7 7-7 7"/>
</symbol>

<symbol id="i-plus" viewBox="0 0 24 24" fill="none" stroke="currentColor" stroke-width="2" stroke-linecap="round" stroke-linejoin="round">
  <path d="M12 5v14M5 12h14"/>
</symbol>

<symbol id="i-reveal" viewBox="0 0 24 24" fill="none" stroke="currentColor" stroke-width="1.8" stroke-linecap="round" stroke-linejoin="round">
  <path d="M2 12s4-7 10-7 10 7 10 7-4 7-10 7-10-7-10-7z"/>
  <circle cx="12" cy="12" r="3"/>
</symbol>

<symbol id="i-spark" viewBox="0 0 24 24" fill="none" stroke="currentColor" stroke-width="1.8" stroke-linecap="round" stroke-linejoin="round">
  <path d="M12 3l1.8 6.2L20 11l-6.2 1.8L12 19l-1.8-6.2L4 11l6.2-1.8z"/>
</symbol>

</svg>
