<svg xmlns="http://www.w3.org/2000/svg" style="display:none">
<defs>
<style>
.r { shape-rendering: crispEdges; }
</style>
</defs>

<!-- ============================================================
     TEAM EMBLEMS — pixel-art heraldic glyphs, 16x16 viewBox
     ============================================================ -->

<symbol id="i-target" viewBox="0 0 16 16">
  <path fill="currentColor" d="M6 1h4v1H6zM3 2h3v1H3zM10 2h3v1h-3zM2 3h1v1H2zM5 3h6v1H5zM13 3h1v1h-1zM1 4h1v2H1zM4 4h1v1H4zM11 4h1v1h-1zM14 4h1v2h-1zM3 5h1v1H3zM5 5h2v1H5zM9 5h2v1H9zM12 5h1v1h-1zM6 6h1v1H6zM9 6h1v1H9zM7 7h2v2H7zM6 9h1v1H6zM9 9h1v1H9zM3 10h1v1H3zM5 10h2v1H5zM9 10h2v1H9zM12 10h1v1h-1zM1 10h1v2H1zM4 11h1v1H4zM11 11h1v1h-1zM14 10h1v2h-1zM2 12h1v1H2zM5 12h6v1H5zM13 12h1v1h-1zM3 13h3v1H3zM10 13h3v1h-3zM6 14h4v1H6z"/>
</symbol>

<symbol id="i-bolt" viewBox="0 0 16 16">
  <path fill="currentColor" d="M9 1h3v2H9zM7 3h3v2H7zM5 5h4v2H5zM3 7h5v2H3zM6 8h4v1H6zM5 9h5v2H5zM7 11h4v2H7zM9 13h3v2H9z"/>
</symbol>

<symbol id="i-shield" viewBox="0 0 16 16">
  <path fill="currentColor" d="M3 2h10v1H3zM2 3h12v3H2zM2 6h12v2H2zM3 8h10v2H3zM4 10h8v2H4zM5 12h6v1H5zM6 13h4v1H6zM7 14h2v1H7z"/>
  <path fill="var(--paper-1)" d="M7 5h2v1H7zM6 6h1v1H6zM9 6h1v1H9zM7 7h2v1H7z"/>
</symbol>

<symbol id="i-crown" viewBox="0 0 16 16">
  <path fill="currentColor" d="M2 4h2v1H2zM7 4h2v1H7zM12 4h2v1h-2zM2 5h2v3H2zM7 5h2v3H7zM12 5h2v3h-2zM4 7h3v1H4zM9 7h3v1H9zM2 8h12v2H2zM3 10h10v2H3z"/>
  <path fill="var(--paper-1)" d="M5 9h2v1H5zM9 9h2v1H9z"/>
</symbol>

<symbol id="i-flame" viewBox="0 0 16 16">
  <path fill="currentColor" d="M8 1h1v1H8zM7 2h2v1H7zM6 3h1v2H6zM9 3h1v2H9zM5 5h2v1H5zM9 5h2v1H9zM4 6h2v2H4zM10 6h2v2h-2zM3 8h3v2H3zM10 8h3v2h-3zM3 10h2v3H3zM11 10h2v3h-2zM4 13h2v1H4zM10 13h2v1h-2zM5 14h6v1H5zM6 5h3v1H6zM7 6h2v3H7zM6 9h4v3H6zM7 12h2v2H7z"/>
</symbol>

<symbol id="i-anchor" viewBox="0 0 16 16">
  <path fill="currentColor" d="M7 1h2v2H7zM6 3h4v1H6zM7 4h2v8H7zM4 6h8v1H4zM2 9h2v1H2zM12 9h2v1h-2zM2 10h1v2H2zM13 10h1v2h-1zM3 12h2v1H3zM11 12h2v1h-2zM5 13h6v1H5z"/>
</symbol>

<symbol id="i-mountain" viewBox="0 0 16 16">
  <path fill="currentColor" d="M7 2h2v1H7zM6 3h1v1H6zM9 3h1v1H9zM5 4h1v1H5zM10 4h1v1h-1zM4 5h2v1H4zM10 5h2v1h-2zM3 6h2v1H3zM11 6h2v1h-2zM2 7h2v1H2zM12 7h2v1h-2zM1 8h3v1H1zM12 8h3v1h-3zM1 9h14v1H1zM1 10h14v1H1zM1 11h14v1H1zM1 12h14v1H1zM1 13h14v1H1z"/>
  <path fill="var(--paper-1)" d="M7 4h2v2H7zM6 6h4v1H6z"/>
</symbol>

<symbol id="i-star" viewBox="0 0 16 16">
  <path fill="currentColor" d="M7 1h2v3H7zM6 4h4v1H6zM2 5h12v1H2zM2 6h2v1H2zM12 6h2v1h-2zM4 6h2v2H4zM10 6h2v2h-2zM5 7h6v2H5zM3 8h2v2H3zM11 8h2v2h-2zM4 10h2v1H4zM10 10h2v1h-2zM5 11h6v1H5zM4 12h2v2H4zM10 12h2v2h-2z"/>
</symbol>

<symbol id="i-moon" viewBox="0 0 16 16">
  <path fill="currentColor" d="M6 2h3v1H6zM4 3h2v1H4zM10 3h1v1h-1zM3 4h1v1H3zM3 5h1v1H3zM2 6h2v4H2zM3 10h1v1H3zM3 11h1v1H3zM4 12h2v1H4zM6 13h3v1H6z"/>
</symbol>

<symbol id="i-leaf" viewBox="0 0 16 16">
  <path fill="currentColor" d="M11 1h2v2h-2zM9 3h4v2H9zM7 5h6v2H7zM5 7h7v2H5zM4 9h6v2H4zM3 11h5v2H3zM2 13h4v1H2z"/>
  <path fill="var(--paper-1)" d="M9 5h1v1H9zM7 7h1v1H7zM5 9h1v1H5zM8 6h1v1H8zM6 8h1v1H6z"/>
</symbol>

<symbol id="i-diamond" viewBox="0 0 16 16">
  <path fill="currentColor" d="M7 2h2v1H7zM6 3h4v1H6zM5 4h6v1H5zM4 5h8v1H4zM3 6h10v1H3zM2 7h12v2H2zM3 9h10v1H3zM4 10h8v1H4zM5 11h6v1H5zM6 12h4v1H6zM7 13h2v1H7z"/>
  <path fill="var(--paper-1)" d="M7 6h2v1H7zM6 7h1v1H6zM9 7h1v1H9zM7 8h2v1H7z"/>
</symbol>

<symbol id="i-eye" viewBox="0 0 16 16">
  <path fill="currentColor" d="M5 5h6v1H5zM3 6h2v2H3zM11 6h2v2h-2zM2 7h1v2H2zM13 7h1v2h-1zM3 8h2v2H3zM11 8h2v2h-2zM5 9h6v1H5zM6 6h4v4H6z"/>
  <path fill="var(--paper-1)" d="M7 7h2v2H7z"/>
</symbol>

<!-- ============================================================
     UI ICONS
     ============================================================ -->

<symbol id="i-check" viewBox="0 0 16 16">
  <path fill="currentColor" d="M12 3h2v2h-2zM11 5h2v1h-2zM10 6h2v1h-2zM9 7h2v1H9zM8 8h2v1H8zM7 9h2v1H7zM6 10h2v1H6zM5 11h2v1H5zM4 10h2v1H4zM3 9h2v1H3zM2 7h2v2H2z"/>
</symbol>

<symbol id="i-cross" viewBox="0 0 16 16">
  <path fill="currentColor" d="M3 3h2v2H3zM5 5h2v2H5zM7 7h2v2H7zM9 9h2v2H9zM11 11h2v2h-2zM11 3h2v2h-2zM9 5h2v2H9zM5 9h2v2H5zM3 11h2v2H3z"/>
</symbol>

<symbol id="i-lock" viewBox="0 0 16 16">
  <path fill="currentColor" d="M5 2h6v1H5zM4 3h1v1H4zM11 3h1v1h-1zM4 4h1v4H4zM11 4h1v4h-1zM3 7h10v8H3z"/>
  <path fill="var(--paper-1)" d="M7 10h2v3H7z"/>
</symbol>

<symbol id="i-trophy" viewBox="0 0 16 16">
  <path fill="currentColor" d="M3 2h10v1H3zM3 3h1v4H3zM12 3h1v4h-1zM1 4h2v1H1zM13 4h2v1h-2zM1 5h1v2H1zM14 5h1v2h-1zM2 7h2v1H2zM12 7h2v1h-2zM4 8h8v1H4zM5 9h6v1H5zM6 10h4v1H6zM6 11h4v2H6zM4 13h8v1H4zM3 14h10v1H3z"/>
  <path fill="var(--paper-1)" d="M4 3h8v3H4zM5 6h6v1H5z"/>
</symbol>

<symbol id="i-medal" viewBox="0 0 16 16">
  <path fill="currentColor" d="M3 1h2v3H3zM11 1h2v3h-2zM5 4h1v1H5zM10 4h1v1h-1zM4 5h2v1H4zM10 5h2v1h-2zM6 6h4v1H6zM4 7h2v4H4zM10 7h2v4h-2zM5 11h2v1H5zM9 11h2v1H9zM6 12h4v1H6z"/>
  <path fill="var(--paper-1)" d="M7 7h2v3H7z"/>
</symbol>

<symbol id="i-ribbon" viewBox="0 0 16 16">
  <path fill="currentColor" d="M3 1h10v9H3zM2 10h3v2H2zM6 10h4v2H6zM11 10h3v2h-3zM3 12h2v3H3zM6 12h4v1H6zM11 12h2v3h-2z"/>
  <path fill="var(--paper-1)" d="M5 3h6v5H5zM6 4h4v3H6z"/>
</symbol>

<symbol id="i-hourglass" viewBox="0 0 16 16">
  <path fill="currentColor" d="M3 1h10v2H3zM3 13h10v2H3zM4 3h8v1H4zM4 12h8v1H4zM5 4h6v1H5zM5 11h6v1H5zM6 5h4v1H6zM6 10h4v1H6zM7 6h2v4H7z"/>
</symbol>

<symbol id="i-sparkle" viewBox="0 0 16 16">
  <path fill="currentColor" d="M7 1h2v2H7zM7 13h2v2H7zM1 7h2v2H1zM13 7h2v2h-2zM7 3h2v10H7zM3 7h10v2H3zM4 4h1v1H4zM11 4h1v1h-1zM4 11h1v1H4zM11 11h1v1h-1z"/>
</symbol>

<symbol id="i-play" viewBox="0 0 16 16">
  <path fill="currentColor" d="M4 2h2v12H4zM6 3h2v10H6zM8 4h2v8H8zM10 5h2v6h-2zM12 6h2v4h-2z"/>
</symbol>

<symbol id="i-pause" viewBox="0 0 16 16">
  <path fill="currentColor" d="M3 3h3v10H3zM10 3h3v10h-3z"/>
</symbol>

<symbol id="i-reveal" viewBox="0 0 16 16">
  <path fill="currentColor" d="M7 1h2v2H7zM7 13h2v2H7zM1 7h2v2H1zM13 7h2v2h-2zM3 3h2v2H3zM11 11h2v2h-2zM11 3h2v2h-2zM3 11h2v2H3zM6 6h4v4H6z"/>
  <path fill="var(--paper-1)" d="M7 7h2v2H7z"/>
</symbol>

<symbol id="i-fleuron" viewBox="0 0 16 16">
  <path fill="currentColor" d="M7 1h2v3H7zM7 12h2v3H7zM1 7h3v2H1zM12 7h3v2h-3zM5 5h2v2H5zM9 5h2v2H9zM5 9h2v2H5zM9 9h2v2H9zM7 6h2v4H7zM6 7h4v2H6z"/>
</symbol>

<symbol id="i-arrow-right" viewBox="0 0 16 16">
  <path fill="currentColor" d="M8 3h1v1H8zM9 4h1v1H9zM10 5h1v1h-1zM11 6h1v1h-1zM12 7h2v2h-2zM11 9h1v1h-1zM10 10h1v1h-1zM9 11h1v1H9zM8 12h1v1H8zM2 7h11v2H2z"/>
</symbol>

</svg>
